<svg width="715" height="325" viewBox="0 0 715 325" fill="none" xmlns="http://www.w3.org/2000/svg">
<path d="M130 325H0V0H130V325Z" fill="url(#paint0_linear_2_55)"/>
<path d="M325 325H195V0H325V325Z" fill="url(#paint1_linear_2_55)"/>
<path d="M520 325H390V0H520V325Z" fill="url(#paint2_linear_2_55)"/>
<path d="M715 325H585V0H715V325Z" fill="url(#paint3_linear_2_55)"/>
<path d="M0 0H325V65H0V0Z" fill="url(#paint4_linear_2_55)"/>
<path d="M390 260H715V325H390V260Z" fill="url(#paint5_linear_2_55)"/>
<path d="M195 260H520V325H195V260Z" fill="url(#paint6_linear_2_55)"/>
<defs>
<linearGradient id="paint0_linear_2_55" x1="357.5" y1="319.5" x2="357.5" y2="-203" gradientUnits="userSpaceOnUse">
<stop stop-color="#2FD7B8"/>
<stop offset="1" stop-color="#D9D9D9" stop-opacity="0"/>
</linearGradient>
<linearGradient id="paint1_linear_2_55" x1="357.5" y1="325" x2="-227.466" y2="-317.036" gradientUnits="userSpaceOnUse">
<stop stop-color="#2FD7B8"/>
<stop offset="1" stop-color="#2FD7B8" stop-opacity="0"/>
</linearGradient>
<linearGradient id="paint2_linear_2_55" x1="357.5" y1="-3.98681e-06" x2="385.547" y2="637.115" gradientUnits="userSpaceOnUse">
<stop stop-color="#2FD7B8"/>
<stop offset="1" stop-color="#D9D9D9" stop-opacity="0"/>
</linearGradient>
<linearGradient id="paint3_linear_2_55" x1="357.5" y1="-3.98681e-06" x2="385.547" y2="637.115" gradientUnits="userSpaceOnUse">
<stop stop-color="#2FD7B8"/>
<stop offset="1" stop-color="#D9D9D9" stop-opacity="0"/>
</linearGradient>
<linearGradient id="paint4_linear_2_55" x1="6.10468e-05" y1="165" x2="1408.17" y2="900.997" gradientUnits="userSpaceOnUse">
<stop stop-color="#2FD7B8"/>
<stop offset="1" stop-color="#2FD7B8" stop-opacity="0"/>
</linearGradient>
<linearGradient id="paint5_linear_2_55" x1="2.01802e-06" y1="165" x2="1150.6" y2="165" gradientUnits="userSpaceOnUse">
<stop stop-color="#2FD7B8"/>
<stop offset="1" stop-color="#2FD7B8" stop-opacity="0"/>
</linearGradient>
<linearGradient id="paint6_linear_2_55" x1="392" y1="181" x2="575.5" y2="293" gradientUnits="userSpaceOnUse">
<stop stop-color="#2FD7B8"/>
<stop offset="1" stop-color="#2FD7B8" stop-opacity="0"/>
</linearGradient>
</defs>
</svg>
